<?xml version="1.0" encoding="iso-8859-1"?>
<!-- Uploaded to: SVG Repo, www.svgrepo.com, Generator: SVG Repo Mixer Tools -->
<svg version="1.1" id="Layer_1" xmlns="http://www.w3.org/2000/svg" xmlns:xlink="http://www.w3.org/1999/xlink" 
	 viewBox="0 0 512 512" xml:space="preserve">
<path style="fill:#E1EFFA;" d="M512,255.997C512,397.389,397.389,512,255.997,512C114.614,512,0,397.389,0,255.997
	C0,114.614,114.614,0,255.997,0C397.389,0,512,114.614,512,255.997z"/>
<path style="fill:#BCD4E8;" d="M511.762,265.441L393.139,146.803H237.204H118.858v64.95c0,0.842,0.087,1.667,0.253,2.465
	c0.069,0.361,0.21,0.694,0.317,1.047c0.118,0.417,0.218,0.847,0.387,1.242c0.205,0.499,0.481,0.957,0.745,1.418
	c0.125,0.212,0.218,0.435,0.351,0.64c0.407,0.625,0.878,1.201,1.39,1.741c0.013,0.01,0.02,0.028,0.036,0.038
	c0,0,0,0.003,0.003,0.003c0.128,0.133,0.256,0.266,0.389,0.392l0.008,0.008l8.596,8.591v127.857h-12.472v8.005l146.583,146.56
	C399.306,506.903,506.903,399.306,511.762,265.441z"/>
<rect x="131.328" y="211.738" style="fill:#0684BA;" width="249.344" height="145.454"/>
<rect x="118.861" y="357.197" style="fill:#283A4D;" width="274.278" height="7.985"/>
<rect x="131.328" y="349.21" style="fill:#FF8E31;" width="249.344" height="7.992"/>
<rect x="147.863" y="241.664" style="fill:#34495E;" width="59.825" height="75.218"/>
<rect x="152.55" y="246.349" style="fill:#CEE2F2;" width="50.447" height="61.171"/>
<polygon style="fill:#F2F9FF;" points="152.553,307.523 152.553,246.351 203,307.523 "/>
<rect x="143.821" y="307.533" style="fill:#FF8E31;" width="67.907" height="4.682"/>
<rect x="304.307" y="241.664" style="fill:#34495E;" width="59.822" height="75.218"/>
<rect x="308.992" y="246.349" style="fill:#CEE2F2;" width="50.447" height="61.171"/>
<polygon style="fill:#F2F9FF;" points="309.002,307.523 309.002,246.351 359.45,307.523 "/>
<rect x="300.262" y="307.533" style="fill:#FF8E31;" width="67.899" height="4.682"/>
<rect x="221.568" y="239.002" style="fill:#F28124;" width="68.872" height="118.195"/>
<rect x="224.23" y="241.664" style="fill:#34495E;" width="63.544" height="115.533"/>
<rect x="228.915" y="246.349" style="fill:#CEE2F2;" width="54.17" height="46.697"/>
<polygon style="fill:#F2F9FF;" points="228.92,293.048 228.92,246.351 283.08,293.048 "/>
<rect x="118.861" y="146.816" style="fill:#FF9D4D;" width="24.94" height="64.937"/>
<rect x="143.795" y="146.816" style="fill:#F2F9FF;" width="24.932" height="64.937"/>
<rect x="168.73" y="146.816" style="fill:#FF9D4D;" width="24.934" height="64.937"/>
<rect x="193.664" y="146.816" style="fill:#F2F9FF;" width="24.937" height="64.937"/>
<rect x="218.598" y="146.816" style="fill:#FF9D4D;" width="24.932" height="64.937"/>
<rect x="243.533" y="146.816" style="fill:#F2F9FF;" width="24.932" height="64.937"/>
<rect x="268.467" y="146.816" style="fill:#FF9D4D;" width="24.94" height="64.937"/>
<path style="fill:#F28124;" d="M143.795,211.748c0,6.886-5.583,12.467-12.475,12.467c-6.881,0-12.465-5.581-12.465-12.467
	C125.916,211.748,136.387,211.748,143.795,211.748z"/>
<path style="fill:#CEE2F2;" d="M168.73,211.748c0,6.886-5.583,12.467-12.467,12.467c-6.886,0-12.467-5.581-12.467-12.467
	C150.848,211.748,161.318,211.748,168.73,211.748z"/>
<path style="fill:#F28124;" d="M193.664,211.748c0,6.886-5.581,12.467-12.47,12.467c-6.884,0-12.467-5.581-12.467-12.467
	C175.782,211.748,186.258,211.748,193.664,211.748z"/>
<path style="fill:#CEE2F2;" d="M218.601,211.748c0,6.886-5.583,12.467-12.467,12.467c-6.889,0-12.47-5.581-12.47-12.467
	C200.719,211.748,211.19,211.748,218.601,211.748z"/>
<path style="fill:#F28124;" d="M243.533,211.748c0,6.886-5.581,12.467-12.467,12.467c-6.889,0-12.467-5.581-12.467-12.467
	C225.651,211.748,236.122,211.748,243.533,211.748z"/>
<path style="fill:#CEE2F2;" d="M268.465,211.748c0,6.886-5.576,12.467-12.467,12.467c-6.881,0-12.465-5.581-12.465-12.467
	C250.591,211.748,261.059,211.748,268.465,211.748z"/>
<g>
	<path style="fill:#F28124;" d="M293.404,211.748c0,6.886-5.583,12.467-12.465,12.467c-6.889,0-12.475-5.581-12.475-12.467
		C275.525,211.748,285.996,211.748,293.404,211.748z"/>
	<rect x="118.861" y="146.816" style="fill:#F28124;" width="24.94" height="6.787"/>
</g>
<rect x="143.795" y="146.816" style="fill:#CEE2F2;" width="24.932" height="6.787"/>
<rect x="168.73" y="146.816" style="fill:#F28124;" width="24.934" height="6.787"/>
<rect x="193.664" y="146.816" style="fill:#CEE2F2;" width="24.937" height="6.787"/>
<rect x="218.598" y="146.816" style="fill:#F28124;" width="24.932" height="6.787"/>
<rect x="243.533" y="146.816" style="fill:#CEE2F2;" width="24.932" height="6.787"/>
<rect x="293.402" y="146.816" style="fill:#F2F9FF;" width="24.932" height="64.937"/>
<g>
	<path style="fill:#CEE2F2;" d="M318.339,211.748c0,6.886-5.578,12.467-12.467,12.467c-6.881,0-12.465-5.581-12.465-12.467
		C300.457,211.748,310.927,211.748,318.339,211.748z"/>
	<rect x="293.402" y="146.816" style="fill:#CEE2F2;" width="24.932" height="6.787"/>
</g>
<rect x="343.27" y="146.816" style="fill:#F2F9FF;" width="24.937" height="64.937"/>
<g>
	<path style="fill:#CEE2F2;" d="M368.207,211.748c0,6.886-5.583,12.467-12.472,12.467c-6.876,0-12.465-5.581-12.465-12.467
		C350.328,211.748,360.801,211.748,368.207,211.748z"/>
	<rect x="343.27" y="146.816" style="fill:#CEE2F2;" width="24.937" height="6.787"/>
</g>
<rect x="268.467" y="146.816" style="fill:#F28124;" width="24.94" height="6.787"/>
<rect x="318.336" y="146.816" style="fill:#FF9D4D;" width="24.932" height="64.937"/>
<g>
	<path style="fill:#F28124;" d="M343.27,211.748c0,6.886-5.578,12.467-12.46,12.467c-6.889,0-12.472-5.581-12.472-12.467
		C325.394,211.748,335.867,211.748,343.27,211.748z"/>
	<rect x="318.336" y="146.816" style="fill:#F28124;" width="24.932" height="6.787"/>
</g>
<rect x="368.205" y="146.816" style="fill:#FF9D4D;" width="24.932" height="64.937"/>
<g>
	<path style="fill:#F28124;" d="M393.139,211.748c0,6.886-5.576,12.467-12.457,12.467c-6.889,0-12.475-5.581-12.475-12.467
		C375.26,211.748,385.738,211.748,393.139,211.748z"/>
	<rect x="368.205" y="146.816" style="fill:#F28124;" width="24.932" height="6.787"/>
</g>
<circle style="fill:#F2F9FF;" cx="228.915" cy="299.443" r="2.132"/>
</svg>